<svg xmlns="http://www.w3.org/2000/svg" width="50.626" height="45" viewBox="0 0 50.626 45">
  <path id="hand-holding-heart-solid" d="M24.2,22a1.531,1.531,0,0,0,2.241,0l9.571-10.037a7.285,7.285,0,0,0-.492-10.441A6.681,6.681,0,0,0,26.3,2.2l-.984,1.028L24.336,2.2a6.673,6.673,0,0,0-9.219-.686,7.293,7.293,0,0,0-.492,10.441Zm25.487,6.82a2.909,2.909,0,0,0-3.744,0l-8.121,6.495a5.6,5.6,0,0,1-3.515,1.23h-10.4a1.406,1.406,0,1,1,0-2.812h6.882a2.926,2.926,0,0,0,2.927-2.338A2.816,2.816,0,0,0,30.936,28.1H16.874a10.344,10.344,0,0,0-6.512,2.311L6.275,33.729H1.406A1.41,1.41,0,0,0,0,35.135v8.437a1.41,1.41,0,0,0,1.406,1.406H32.764a5.632,5.632,0,0,0,3.515-1.23L49.568,33.114A2.811,2.811,0,0,0,49.682,28.816Z" transform="translate(0 0.022)" fill="#fff"/>
</svg>
